<?xml version="1.0" encoding="iso-8859-1"?>
<!-- Generator: Adobe Illustrator 19.0.0, SVG Export Plug-In . SVG Version: 6.00 Build 0)  -->
<svg version="1.1" id="Layer_1" xmlns="http://www.w3.org/2000/svg" xmlns:xlink="http://www.w3.org/1999/xlink" x="0px" y="0px"
	 viewBox="0 0 512 512" style="enable-background:new 0 0 512 512;" xml:space="preserve">
<path style="fill:#F07057;" d="M74.178,255.404c0-67.055,54.359-121.412,121.412-121.412s121.412,54.359,121.412,121.412H74.178z"/>
<path d="M316.408,0c-70.09,0-127.552,55.075-131.399,124.22C117.368,129.628,63.98,186.398,63.98,255.405
	c0,5.633,4.567,10.199,10.199,10.199h242.825c5.632,0,10.199-4.566,10.199-10.199c0-69.255-53.769-126.185-121.753-131.243
	C209.296,66.3,257.59,20.398,316.408,20.398c61.323,0,111.213,49.89,111.213,111.213V497.04c0,5.633,4.567,10.199,10.199,10.199
	c5.632,0,10.199-4.566,10.199-10.199V131.612C448.02,59.041,388.979,0,316.408,0z M306.34,245.206H84.843
	c5.168-56.559,52.866-101.014,110.749-101.014S301.172,188.647,306.34,245.206z"/>
<path d="M99.174,284.486c-5.632,0-10.199,4.566-10.199,10.199v79.752c0,5.633,4.567,10.199,10.199,10.199
	s10.199-4.566,10.199-10.199v-79.752C109.374,289.053,104.808,284.486,99.174,284.486z"/>
<path d="M99.174,410.66c-5.632,0-10.199,4.566-10.199,10.199v79.752c0,5.633,4.567,10.199,10.199,10.199s10.199-4.566,10.199-10.199
	v-79.752C109.374,415.226,104.808,410.66,99.174,410.66z"/>
<path d="M168.214,302.341c-5.632,0-10.199,4.566-10.199,10.199v89.274c0,5.633,4.567,10.199,10.199,10.199
	s10.199-4.566,10.199-10.199V312.54C178.413,306.907,173.846,302.341,168.214,302.341z"/>
<path d="M168.214,440.418c-5.632,0-10.199,4.566-10.199,10.199v27.378c0,5.633,4.567,10.199,10.199,10.199
	s10.199-4.566,10.199-10.199v-27.378C178.413,444.984,173.846,440.418,168.214,440.418z"/>
<path d="M225.349,302.341c-5.632,0-10.199,4.566-10.199,10.199v9.522c0,5.633,4.567,10.199,10.199,10.199
	s10.199-4.566,10.199-10.199v-9.522C235.548,306.907,230.982,302.341,225.349,302.341z"/>
<path d="M225.349,351.739c-5.632,0-10.199,4.566-10.199,10.199v50.589c0,5.633,4.567,10.199,10.199,10.199
	s10.199-4.566,10.199-10.199v-50.589C235.548,356.305,230.982,351.739,225.349,351.739z"/>
<path d="M282.485,292.818c-5.632,0-10.199,4.566-10.199,10.199v30.948c0,5.633,4.567,10.199,10.199,10.199
	c5.632,0,10.199-4.566,10.199-10.199v-30.948C292.684,297.384,288.117,292.818,282.485,292.818z"/>
<path d="M282.485,372.57c-5.632,0-10.199,4.566-10.199,10.199v119.032c0,5.633,4.567,10.199,10.199,10.199
	c5.632,0,10.199-4.566,10.199-10.199V382.769C292.684,377.136,288.117,372.57,282.485,372.57z"/>
<g>
</g>
<g>
</g>
<g>
</g>
<g>
</g>
<g>
</g>
<g>
</g>
<g>
</g>
<g>
</g>
<g>
</g>
<g>
</g>
<g>
</g>
<g>
</g>
<g>
</g>
<g>
</g>
<g>
</g>
</svg>
